<svg width="147" height="47" viewBox="0 0 147 47" fill="none" xmlns="http://www.w3.org/2000/svg">
<g clip-path="url(#clip0_13312_48496)">
<path d="M4 13.0378C7.69804 13.3244 11.4134 12.7803 14.8739 11.4454C16.517 10.8029 18.0849 9.98287 19.55 9C21.4228 10.2559 23.4613 11.2451 25.6067 11.9394C28.5751 12.8986 31.699 13.2838 34.8115 13.0747L34.7747 27.0291C34.6522 29.4825 34.0889 31.8938 33.1117 34.1475C29.531 42.3398 21.5658 45.4633 19.5469 46.1874C16.632 44.9263 7.30452 40.4497 4.7057 31.1713C4.36152 29.934 4.14863 28.6639 4.07057 27.382C4.05012 22.6016 4.02659 17.8202 4 13.0378Z" fill="white"/>
<path d="M11.748 19.4756L9.78125 20.5894L9.815 32.4421L20.0784 38.2994L30.1146 32.4053L24.1776 28.9197L15.7736 33.8811L15.8165 24.0626L17.6851 22.9489L11.748 19.4756Z" fill="#861EAD" stroke="#7F3F98" stroke-width="0.306827" stroke-miterlimit="10"/>
<path d="M14.0762 18.1864C16.0705 17.0327 18.0629 15.877 20.0532 14.7192L30.2122 20.6226L24.2352 23.9977L14.0762 18.1864Z" fill="#861EAD" stroke="#7F3F98" stroke-width="0.306827" stroke-miterlimit="10"/>
</g>
<path d="M52.4272 30.2703C52.9946 30.2703 53.5443 30.1848 54.0779 30.0124C54.6147 29.8415 55.0081 29.6754 55.2579 29.5159L55.6384 29.2579L57.2182 32.4304C57.1666 32.4691 57.0924 32.5239 56.9989 32.5916C56.9087 32.6561 56.6926 32.777 56.3541 32.9527C56.0188 33.13 55.6593 33.2848 55.2773 33.417C54.8936 33.5508 54.3907 33.6685 53.7684 33.7716C53.1494 33.878 52.511 33.9328 51.8533 33.9328C50.3348 33.9328 48.8952 33.5621 47.533 32.8173C46.1741 32.0693 45.0779 31.0424 44.2445 29.7351C43.4143 28.4293 43 27.014 43 25.4922C43 24.3444 43.2418 23.245 43.7286 22.1908C44.2187 21.1333 44.87 20.2289 45.6824 19.4761C46.4949 18.72 47.4428 18.1188 48.5261 17.6706C49.6093 17.2241 50.7184 17 51.8533 17C52.9108 17 53.8845 17.1257 54.7743 17.374C55.6642 17.6239 56.2929 17.8753 56.6636 18.1284L57.2182 18.5024L55.6384 21.6749C55.5433 21.5943 55.403 21.4976 55.2192 21.3847C55.0339 21.2735 54.6647 21.1252 54.1102 20.9398C53.5556 20.756 52.9946 20.6625 52.4272 20.6625C51.5277 20.6625 50.7217 20.8092 50.0091 21.101C49.295 21.3896 48.7292 21.7716 48.3133 22.2488C47.9006 22.7227 47.5846 23.2337 47.3654 23.7834C47.1462 24.3299 47.0365 24.8861 47.0365 25.4535C47.0365 26.6964 47.5008 27.8103 48.4293 28.7937C49.3611 29.7786 50.6942 30.2703 52.4272 30.2703Z" fill="white"/>
<path d="M60.9613 23.4741V28.3102C60.9613 29.3129 61.1128 30.0254 61.4191 30.451C61.7238 30.8734 62.2396 31.0829 62.9667 31.0829C63.6921 31.0829 64.2063 30.8734 64.5078 30.451C64.8125 30.0254 64.9656 29.3129 64.9656 28.3102V23.4741H68.4734V29.1614C68.4734 30.8508 68.0317 32.0695 67.1515 32.8175C66.2746 33.5622 64.8769 33.933 62.9602 33.933C61.0467 33.933 59.6523 33.5622 58.7754 32.8175C57.8984 32.0695 57.46 30.8508 57.46 29.1614V23.4741H60.9613Z" fill="white"/>
<path d="M74.0743 23.1782C74.6579 23.1782 75.235 23.2459 75.8024 23.3781C76.3699 23.5071 76.7906 23.6393 77.0663 23.7715L77.4854 23.9713L76.3376 26.2669C75.5413 25.8461 74.7869 25.635 74.0743 25.635C73.6778 25.635 73.3973 25.6785 73.2296 25.7639C73.0652 25.851 72.9846 26.0122 72.9846 26.2475C72.9846 26.2991 72.991 26.3539 73.0039 26.4087C73.0201 26.4603 73.0491 26.5103 73.0878 26.5571C73.1265 26.6054 73.1603 26.6457 73.1909 26.6796C73.2248 26.7102 73.2812 26.744 73.3586 26.7827C73.4392 26.8214 73.5037 26.8521 73.552 26.873C73.5988 26.8956 73.6745 26.9246 73.7777 26.9633C73.8841 27.002 73.9647 27.0326 74.0163 27.0536C74.0679 27.0713 74.1549 27.1019 74.2807 27.1438C74.4096 27.1825 74.5064 27.2083 74.5708 27.2212C74.9787 27.3373 75.3349 27.4695 75.6412 27.6145C75.9459 27.7612 76.2667 27.9611 76.602 28.2142C76.9373 28.4641 77.1968 28.78 77.3822 29.1621C77.566 29.5458 77.6595 29.9794 77.6595 30.4646C77.6595 32.7779 76.0555 33.9337 72.8492 33.9337C72.1222 33.9337 71.4322 33.8209 70.7793 33.5984C70.1248 33.376 69.6525 33.1503 69.3607 32.9214L68.9287 32.5667L70.3538 30.168C70.4569 30.2631 70.5939 30.3727 70.7664 30.4969C70.9373 30.6226 71.2468 30.7935 71.695 31.0127C72.1463 31.232 72.5364 31.3416 72.8685 31.3416C73.5939 31.3416 73.9583 31.0965 73.9583 30.6065C73.9583 30.384 73.8648 30.2099 73.681 30.0842C73.4956 29.9552 73.1813 29.8134 72.7396 29.6586C72.2963 29.5006 71.9497 29.3539 71.7014 29.2201C71.0647 28.8897 70.5617 28.5173 70.1925 28.1046C69.8218 27.6887 69.638 27.1358 69.638 26.4474C69.638 25.4157 70.0378 24.6145 70.8374 24.0423C71.6369 23.4668 72.7154 23.1782 74.0743 23.1782Z" fill="white"/>
<path d="M79.0057 23.4735V19.6885H82.5135V23.4735H84.6543V26.1495H82.5135V29.38C82.5135 30.3182 82.7779 30.7857 83.3066 30.7857C83.4388 30.7857 83.5775 30.7599 83.7193 30.7084C83.8644 30.6535 83.9789 30.5987 84.0611 30.5472L84.1771 30.4633L85.0476 33.3005C84.2948 33.7213 83.4372 33.9324 82.4748 33.9324C81.8123 33.9324 81.2432 33.818 80.7661 33.5907C80.2921 33.3585 79.9343 33.0474 79.6892 32.6557C79.4474 32.2656 79.2733 31.8561 79.1669 31.4305C79.0589 31.0017 79.0057 30.5407 79.0057 30.0506V26.1495H77.542V23.4735H79.0057Z" fill="white"/>
<path d="M86.208 32.4313C85.0812 31.4254 84.5186 30.139 84.5186 28.5689C84.5186 26.9955 85.1053 25.7043 86.2789 24.6935C87.4525 23.6844 88.9049 23.1782 90.6378 23.1782C92.3402 23.1782 93.7749 23.6876 94.9452 24.7064C96.1139 25.722 96.6991 27.0084 96.6991 28.5689C96.6991 30.1261 96.1268 31.4093 94.9839 32.4184C93.8393 33.4292 92.3917 33.9337 90.6378 33.9337C88.8146 33.9337 87.338 33.434 86.208 32.4313ZM88.9226 26.8472C88.4664 27.2954 88.2391 27.8692 88.2391 28.5689C88.2391 29.2653 88.4551 29.8359 88.8904 30.2776C89.3289 30.7209 89.9044 30.9418 90.6185 30.9418C91.3052 30.9418 91.8694 30.7193 92.3079 30.2712C92.7496 29.8198 92.9721 29.2524 92.9721 28.5689C92.9721 27.8692 92.7432 27.2954 92.2886 26.8472C91.8324 26.3958 91.2762 26.1702 90.6185 26.1702C89.9431 26.1702 89.3772 26.3958 88.9226 26.8472Z" fill="white"/>
<path d="M97.3496 33.6371V23.4748H100.857V24.5452H100.896C101.807 23.6344 102.779 23.1782 103.811 23.1782C104.549 23.1782 105.242 23.3314 105.887 23.636C106.535 23.9375 107.025 24.4066 107.357 25.0417C108.384 23.8005 109.506 23.1782 110.723 23.1782C111.806 23.1782 112.736 23.4845 113.515 24.0939C114.292 24.7 114.682 25.6511 114.682 26.9439V33.6371H111.181V27.8918C111.181 27.3502 111.029 26.8988 110.73 26.5377C110.433 26.1734 109.988 25.9896 109.395 25.9896C108.879 25.9896 108.486 26.1476 108.215 26.4603C107.944 26.7698 107.796 27.1422 107.77 27.5759V33.6371H104.262V27.8918C104.262 27.3502 104.114 26.8988 103.817 26.5377C103.52 26.1734 103.076 25.9896 102.482 25.9896C101.941 25.9896 101.534 26.1605 101.264 26.499C100.993 26.8343 100.857 27.2325 100.857 27.6919V33.6371H97.3496Z" fill="white"/>
<path d="M120.288 23.1782C120.872 23.1782 121.449 23.2459 122.016 23.3781C122.584 23.5071 123.004 23.6393 123.28 23.7715L123.699 23.9713L122.551 26.2669C121.755 25.8461 121.001 25.635 120.288 25.635C119.892 25.635 119.611 25.6785 119.443 25.7639C119.279 25.851 119.198 26.0122 119.198 26.2475C119.198 26.2991 119.205 26.3539 119.218 26.4087C119.234 26.4603 119.263 26.5103 119.302 26.5571C119.34 26.6054 119.374 26.6457 119.405 26.6796C119.439 26.7102 119.495 26.744 119.572 26.7827C119.653 26.8214 119.718 26.8521 119.766 26.873C119.813 26.8956 119.888 26.9246 119.992 26.9633C120.098 27.002 120.179 27.0326 120.23 27.0536C120.282 27.0713 120.369 27.1019 120.495 27.1438C120.624 27.1825 120.72 27.2083 120.785 27.2212C121.193 27.3373 121.549 27.4695 121.855 27.6145C122.16 27.7612 122.481 27.9611 122.816 28.2142C123.151 28.4641 123.411 28.78 123.596 29.1621C123.78 29.5458 123.873 29.9794 123.873 30.4646C123.873 32.7779 122.269 33.9337 119.063 33.9337C118.336 33.9337 117.646 33.8209 116.993 33.5984C116.339 33.376 115.866 33.1503 115.575 32.9214L115.143 32.5667L116.568 30.168C116.671 30.2631 116.808 30.3727 116.98 30.4969C117.151 30.6226 117.461 30.7935 117.909 31.0127C118.36 31.232 118.75 31.3416 119.082 31.3416C119.808 31.3416 120.172 31.0965 120.172 30.6065C120.172 30.384 120.079 30.2099 119.895 30.0842C119.709 29.9552 119.395 29.8134 118.953 29.6586C118.51 29.5006 118.164 29.3539 117.915 29.2201C117.279 28.8897 116.776 28.5173 116.406 28.1046C116.036 27.6887 115.852 27.1358 115.852 26.4474C115.852 25.4157 116.252 24.6145 117.051 24.0423C117.851 23.4668 118.929 23.1782 120.288 23.1782Z" fill="white"/>
<path d="M128.763 17.9741V34.3137H125.036V17.9741H128.763Z" fill="#FFBD59"/>
<path d="M134.131 37.7379L133.241 36.3967C133.279 36.3403 133.331 36.271 133.395 36.1904C133.46 36.113 133.597 35.9647 133.808 35.7454C134.023 35.5294 134.229 35.3392 134.427 35.1716C134.624 35.0071 134.854 34.8588 135.117 34.7266C135.383 34.5977 135.628 34.5332 135.852 34.5332V34.4558C133.926 34.0818 132.372 33.1307 131.19 31.5993C130.007 30.0695 129.417 28.2462 129.417 26.1313C129.417 23.7551 130.207 21.7514 131.79 20.1216C133.376 18.4934 135.298 17.6777 137.555 17.6777C139.828 17.6777 141.749 18.4934 143.319 20.1216C144.893 21.7514 145.679 23.7551 145.679 26.1313C145.679 28.0754 145.157 29.7857 144.112 31.264C143.068 32.7438 141.694 33.7401 139.992 34.2559V34.3333C140.073 34.3333 140.424 34.3946 141.043 34.5203C141.662 34.6444 142.155 34.7073 142.526 34.7073C143.029 34.7073 143.484 34.617 143.893 34.4365C144.306 34.2608 144.589 34.0883 144.744 33.9206L144.983 33.6433L146.156 36.1581C146.126 36.2226 146.081 36.3032 146.021 36.4031C145.965 36.5015 145.829 36.6756 145.615 36.9254C145.404 37.1785 145.17 37.4042 144.912 37.6025C144.657 37.7992 144.315 37.9781 143.887 38.1377C143.456 38.2957 142.997 38.3763 142.507 38.3763C141.702 38.3763 140.717 38.1184 139.553 37.6025C138.393 37.0867 137.39 36.8287 136.549 36.8287C136.084 36.8287 135.649 36.9029 135.246 37.0544C134.846 37.2092 134.559 37.3655 134.389 37.5251L134.131 37.7379ZM133.434 26.1313C133.434 26.768 133.507 27.3612 133.653 27.9109C133.799 28.4574 134.027 28.9555 134.337 29.4069C134.646 29.8551 135.074 30.2065 135.62 30.4644C136.17 30.7191 136.815 30.8448 137.555 30.8448C138.943 30.8448 139.973 30.3983 140.643 29.5036C141.317 28.6057 141.656 27.4821 141.656 26.1313C141.656 24.7997 141.311 23.681 140.624 22.7782C139.94 21.8723 138.917 21.4177 137.555 21.4177C136.209 21.4177 135.185 21.8739 134.485 22.7847C133.784 23.6971 133.434 24.8126 133.434 26.1313Z" fill="#FFBD59"/>
<defs>
<clipPath id="clip0_13312_48496">
<rect width="38.3418" height="46.246" fill="white"/>
</clipPath>
</defs>
</svg>
