<svg width="37" height="15" viewBox="0 0 37 15" fill="none" xmlns="http://www.w3.org/2000/svg">
<rect width="14.8868" height="14.8868" rx="7.44338" fill="#89B0E6"/>
<path d="M4.91066 9.55551C4.69259 9.55551 4.49737 9.52436 4.32499 9.46205C4.15261 9.39975 4.00516 9.31148 3.88262 9.19725C3.76217 9.08303 3.66767 8.947 3.59913 8.78916C3.53268 8.62924 3.49529 8.45271 3.48699 8.25956L3.48387 8.22529H4.26891L4.27203 8.25022C4.28034 8.36444 4.30837 8.46725 4.35614 8.55863C4.40599 8.64793 4.4766 8.71958 4.56798 8.77358C4.65936 8.8255 4.77047 8.85146 4.90131 8.85146C5.11938 8.85146 5.28449 8.78812 5.39664 8.66143C5.51086 8.53267 5.56798 8.34679 5.56798 8.1038V4.94805H6.3686V8.11003C6.3686 8.41325 6.31148 8.67285 6.19726 8.88884C6.08303 9.10484 5.91688 9.26994 5.69882 9.38417C5.48075 9.4984 5.21803 9.55551 4.91066 9.55551ZM7.48074 9.44336V4.94805H9.1661C9.61262 4.94805 9.99268 5.03527 10.3063 5.20973C10.622 5.38418 10.8629 5.63756 11.029 5.96985C11.1972 6.30214 11.2814 6.70297 11.2814 7.17234V7.17857C11.2814 7.65832 11.1983 8.06746 11.0321 8.40598C10.866 8.74243 10.6251 8.99995 10.3094 9.17856C9.99579 9.35509 9.61469 9.44336 9.1661 9.44336H7.48074ZM8.28448 8.76735H9.06018C9.35716 8.76735 9.61054 8.70608 9.8203 8.58355C10.0301 8.46102 10.1889 8.28241 10.2969 8.04773C10.407 7.81304 10.462 7.52748 10.462 7.19103V7.1848C10.462 6.85666 10.406 6.57629 10.2938 6.34368C10.1837 6.109 10.0238 5.93039 9.81407 5.80786C9.60431 5.68532 9.35301 5.62406 9.06018 5.62406H8.28448V8.76735Z" fill="#E9EDF5"/>
<rect x="9.57007" width="14.8868" height="14.8868" rx="7.44338" fill="#DFDFAD"/>
<path d="M15.1412 9.55551C14.7923 9.55551 14.489 9.50151 14.2315 9.39352C13.9761 9.28552 13.7746 9.13495 13.6271 8.9418C13.4797 8.74866 13.3966 8.52332 13.3779 8.26579L13.3748 8.22218H14.1536L14.1567 8.25333C14.1692 8.38002 14.219 8.49009 14.3063 8.58355C14.3956 8.67701 14.514 8.75073 14.6614 8.80473C14.8089 8.85665 14.9771 8.88261 15.1661 8.88261C15.3468 8.88261 15.5067 8.85458 15.6458 8.7985C15.785 8.74243 15.894 8.66558 15.9729 8.56797C16.0519 8.46828 16.0913 8.35406 16.0913 8.22529V8.22218C16.0913 8.06019 16.028 7.92831 15.9013 7.82654C15.7746 7.7227 15.5659 7.63963 15.2751 7.57732L14.7923 7.47763C14.3312 7.38002 13.9958 7.22426 13.786 7.01035C13.5783 6.79435 13.4745 6.51917 13.4745 6.1848V6.18169C13.4745 5.91378 13.5451 5.67909 13.6863 5.47764C13.8296 5.27619 14.0259 5.11939 14.2751 5.00724C14.5264 4.89301 14.8141 4.8359 15.138 4.8359C15.4703 4.8359 15.758 4.89197 16.001 5.00412C16.244 5.11419 16.435 5.26476 16.5742 5.45583C16.7133 5.6469 16.7912 5.86289 16.8078 6.10381L16.8109 6.1443H16.0446L16.0384 6.10692C16.0197 5.98854 15.9709 5.88574 15.8919 5.79851C15.8151 5.70921 15.7123 5.63859 15.5835 5.58667C15.4548 5.53475 15.3042 5.50879 15.1318 5.50879C14.9677 5.50879 14.8213 5.53475 14.6926 5.58667C14.5638 5.63652 14.462 5.70713 14.3873 5.79851C14.3146 5.88989 14.2782 5.99996 14.2782 6.12873V6.13184C14.2782 6.28968 14.3395 6.42052 14.462 6.52437C14.5866 6.62821 14.7891 6.7092 15.0695 6.76736L15.5524 6.87016C15.8681 6.93662 16.1245 7.02488 16.3218 7.13496C16.5191 7.24503 16.6635 7.3821 16.7549 7.54617C16.8483 7.70816 16.895 7.90339 16.895 8.13184V8.13495C16.895 8.42571 16.8234 8.67701 16.6801 8.88884C16.5389 9.10068 16.3364 9.26475 16.0726 9.38105C15.8109 9.49736 15.5005 9.55551 15.1412 9.55551ZM17.7985 9.44336V4.94805H20.6645V5.62406H18.6022V6.95427H20.4869V7.60847H18.6022V9.44336H17.7985Z" fill="#4D4D4D"/>
<rect x="18.7985" width="14.8868" height="14.8868" rx="7.44338" fill="#D9D9D9"/>
<path d="M22.4413 7.9823V7.27826H25.8743V7.9823H22.4413ZM23.8058 9.33121V5.92935H24.5098V9.33121H23.8058ZM28.3478 9.5337C28.0197 9.5337 27.732 9.47867 27.4849 9.36859C27.2398 9.25852 27.0456 9.10587 26.9023 8.91065C26.7611 8.71335 26.6801 8.48594 26.6593 8.22841L26.6562 8.19103H27.4226L27.4257 8.22529C27.4402 8.35198 27.4869 8.46517 27.5659 8.56486C27.6448 8.66247 27.7507 8.73931 27.8836 8.79539C28.0165 8.84938 28.1713 8.87638 28.3478 8.87638C28.5202 8.87638 28.6707 8.84627 28.7995 8.78604C28.9303 8.72581 29.0321 8.64274 29.1048 8.53682C29.1775 8.4309 29.2138 8.30837 29.2138 8.16922V8.16299C29.2138 7.92623 29.1318 7.74451 28.9677 7.61782C28.8037 7.49113 28.5773 7.42779 28.2886 7.42779H27.7559V6.82966H28.273C28.4371 6.82966 28.5814 6.80058 28.706 6.74243C28.8307 6.68428 28.9272 6.60536 28.9958 6.50567C29.0643 6.40391 29.0986 6.28761 29.0986 6.15677V6.15053C29.0986 6.01139 29.0685 5.89301 29.0082 5.7954C28.9501 5.69778 28.8639 5.62302 28.7497 5.5711C28.6375 5.51918 28.5015 5.49322 28.3416 5.49322C28.1837 5.49322 28.0435 5.52022 27.921 5.57421C27.8005 5.62821 27.704 5.70505 27.6313 5.80474C27.5586 5.90235 27.515 6.01762 27.5004 6.15053L27.4973 6.18169H26.7528L26.7559 6.1443C26.7787 5.8847 26.8577 5.65936 26.9927 5.46829C27.1297 5.27515 27.3125 5.12562 27.5409 5.0197C27.7715 4.9117 28.0383 4.8577 28.3416 4.8577C28.651 4.8577 28.92 4.90859 29.1484 5.01035C29.3769 5.11004 29.5534 5.24815 29.678 5.42468C29.8047 5.60121 29.868 5.80786 29.868 6.04462V6.05085C29.868 6.23569 29.8265 6.39976 29.7434 6.54306C29.6624 6.68428 29.5503 6.80162 29.407 6.89508C29.2658 6.98854 29.1048 7.05396 28.9241 7.09134V7.10692C29.2564 7.13807 29.5233 7.24814 29.7247 7.43714C29.9262 7.62405 30.0269 7.87327 30.0269 8.1848V8.19103C30.0269 8.45271 29.9563 8.68531 29.8151 8.88884C29.6739 9.0903 29.4766 9.24814 29.2232 9.36236C28.9719 9.47659 28.6801 9.5337 28.3478 9.5337Z" fill="#4D4D4D"/>
</svg>
