<svg width="51" height="48" viewBox="0 0 51 48" fill="none" xmlns="http://www.w3.org/2000/svg">
<rect width="51" height="48" rx="6.73261" fill="white"/>
<path d="M17.1608 16.9248C16.7051 16.9248 16.2972 16.8587 15.9372 16.7266C15.5772 16.599 15.2718 16.4144 15.0212 16.1729C14.7705 15.9313 14.5746 15.6465 14.4333 15.3184C14.292 14.9902 14.21 14.6302 14.1872 14.2383L14.1804 14.1562H15.6979V14.2109C15.7207 14.4616 15.7891 14.6895 15.903 14.8945C16.0169 15.0951 16.1765 15.2546 16.3815 15.373C16.5912 15.4915 16.8487 15.5508 17.154 15.5508C17.6599 15.5508 18.0449 15.4049 18.3093 15.1133C18.5736 14.8171 18.7057 14.3864 18.7057 13.8213V6.82129H20.2438V13.835C20.2438 14.4821 20.1208 15.0358 19.8747 15.4961C19.6332 15.9564 19.2822 16.3096 18.822 16.5557C18.3662 16.8018 17.8125 16.9248 17.1608 16.9248ZM24.5436 16.8086C24.0742 16.8086 23.6527 16.7197 23.279 16.542C22.9099 16.3597 22.6182 16.1022 22.404 15.7695C22.1898 15.4368 22.0827 15.0472 22.0827 14.6006V14.5869C22.0827 14.1403 22.1898 13.7598 22.404 13.4453C22.6227 13.1309 22.9372 12.8848 23.3474 12.707C23.7621 12.5247 24.2634 12.4154 24.8513 12.3789L27.5925 12.2148V13.2607L25.0563 13.4248C24.5459 13.4567 24.1699 13.5661 23.9284 13.7529C23.6869 13.9352 23.5661 14.1927 23.5661 14.5254V14.5391C23.5661 14.8763 23.696 15.1429 23.9557 15.3389C24.2155 15.5303 24.5436 15.626 24.9401 15.626C25.3093 15.626 25.6374 15.5531 25.9245 15.4072C26.2162 15.2568 26.444 15.0563 26.6081 14.8057C26.7722 14.5505 26.8542 14.2633 26.8542 13.9443V11.6064C26.8542 11.1963 26.7266 10.8841 26.4714 10.6699C26.2207 10.4512 25.847 10.3418 25.3503 10.3418C24.9356 10.3418 24.596 10.4147 24.3317 10.5605C24.072 10.7064 23.8988 10.9115 23.8122 11.1758L23.7985 11.1963H22.3698L22.3766 11.1484C22.4359 10.7383 22.5977 10.3828 22.862 10.082C23.1309 9.77669 23.4818 9.53971 23.9147 9.37109C24.3522 9.20247 24.8513 9.11816 25.4118 9.11816C26.0362 9.11816 26.5648 9.21842 26.9977 9.41895C27.4352 9.61491 27.7656 9.89974 27.989 10.2734C28.2168 10.6426 28.3307 11.0869 28.3307 11.6064V16.6855H26.8542V15.6328H26.7448C26.599 15.8835 26.4167 16.0977 26.1979 16.2754C25.9792 16.4486 25.7308 16.5807 25.4528 16.6719C25.1748 16.763 24.8718 16.8086 24.5436 16.8086ZM30.4225 16.6855V9.26172H31.9059V10.3828H32.0222C32.2044 9.98633 32.4733 9.67643 32.8288 9.45312C33.1843 9.22982 33.6332 9.11816 34.1755 9.11816C35.0095 9.11816 35.6475 9.35742 36.0895 9.83594C36.5316 10.3145 36.7526 10.9958 36.7526 11.8799V16.6855H35.2624V12.2285C35.2624 11.6087 35.1325 11.1484 34.8727 10.8477C34.6175 10.5423 34.2165 10.3896 33.6696 10.3896C33.3096 10.3896 32.9974 10.4694 32.7331 10.6289C32.4688 10.7839 32.2637 11.0072 32.1179 11.2988C31.9766 11.5859 31.9059 11.93 31.9059 12.3311V16.6855H30.4225ZM13.2243 38.6855V36.8057L18.5202 31.5312C19.2077 30.8438 19.7377 30.278 20.11 29.834C20.4824 29.3828 20.7367 28.9818 20.8727 28.6309C21.016 28.2799 21.0876 27.9111 21.0876 27.5244V27.5029C21.0876 27.0303 20.9802 26.6149 20.7653 26.2568C20.5576 25.8916 20.2604 25.6051 19.8737 25.3975C19.4942 25.1898 19.0466 25.0859 18.5309 25.0859C17.9724 25.0859 17.4782 25.2005 17.0485 25.4297C16.6188 25.6589 16.2822 25.974 16.0388 26.375C15.7953 26.7689 15.6735 27.2236 15.6735 27.7393L15.6628 27.8037H13.0847L13.0739 27.75C13.0739 26.7904 13.3102 25.9453 13.7829 25.2148C14.2627 24.4772 14.918 23.9007 15.7487 23.4854C16.5794 23.07 17.5248 22.8623 18.5847 22.8623C19.6016 22.8623 20.5039 23.0521 21.2917 23.4316C22.0794 23.8112 22.6953 24.3376 23.1393 25.0107C23.5905 25.6768 23.8161 26.4395 23.8161 27.2988V27.3311C23.8161 27.9255 23.7051 28.4948 23.4831 29.0391C23.2682 29.5833 22.8959 30.1742 22.3659 30.8115C21.8431 31.4489 21.1162 32.2116 20.1852 33.0996L16.0495 37.0742L16.9196 35.5381V37.0742L16.0602 36.4082H24.0524V38.6855H13.2243ZM32.3669 39.0078C31.1136 39.0078 30.0394 38.682 29.1442 38.0303C28.249 37.3714 27.5615 36.4404 27.0817 35.2373C26.6019 34.027 26.362 32.5947 26.362 30.9404V30.9189C26.362 29.2646 26.6019 27.8359 27.0817 26.6328C27.5615 25.4297 28.249 24.5023 29.1442 23.8506C30.0394 23.1917 31.1136 22.8623 32.3669 22.8623C33.613 22.8623 34.6836 23.1917 35.5788 23.8506C36.474 24.5023 37.1615 25.4297 37.6413 26.6328C38.1283 27.8359 38.3718 29.2646 38.3718 30.9189V30.9404C38.3718 32.5947 38.1283 34.027 37.6413 35.2373C37.1615 36.4404 36.474 37.3714 35.5788 38.0303C34.6836 38.682 33.613 39.0078 32.3669 39.0078ZM32.3669 36.752C33.0472 36.752 33.6237 36.5192 34.0964 36.0537C34.5762 35.5882 34.9414 34.9222 35.1921 34.0557C35.4499 33.1891 35.5788 32.1507 35.5788 30.9404V30.9189C35.5788 29.7087 35.4499 28.6738 35.1921 27.8145C34.9414 26.9479 34.5762 26.2819 34.0964 25.8164C33.6237 25.3509 33.0472 25.1182 32.3669 25.1182C31.6865 25.1182 31.1065 25.3509 30.6266 25.8164C30.1468 26.2819 29.7816 26.9479 29.5309 27.8145C29.2803 28.6738 29.155 29.7087 29.155 30.9189V30.9404C29.155 32.1507 29.2803 33.1891 29.5309 34.0557C29.7816 34.9222 30.1468 35.5882 30.6266 36.0537C31.1065 36.5192 31.6865 36.752 32.3669 36.752Z" fill="#4D4D4D"/>
</svg>
