<svg width="51" height="48" viewBox="0 0 51 48" fill="none" xmlns="http://www.w3.org/2000/svg">
<rect width="51" height="48" rx="6.73261" fill="white"/>
<g clip-path="url(#clip0_4856_38)">
<path d="M37.9582 25.4369C37.9582 28.1585 36.4024 30.6857 34.0701 32.4352L33.765 34.2633C33.6873 34.7303 33.4465 35.1545 33.0853 35.4606C32.7242 35.7666 32.2662 35.9346 31.7928 35.9346H31.3479C30.9354 35.9345 30.5398 35.7705 30.2482 35.4788C29.9566 35.187 29.7928 34.7914 29.7928 34.3789C28.6263 34.5738 27.6547 34.7681 26.2939 34.7681C25.1274 34.7681 23.9609 34.5738 22.7944 34.3795C22.7943 34.792 22.6303 35.1876 22.3386 35.4792C22.0468 35.7708 21.6512 35.9346 21.2387 35.9346H20.7647C20.2956 35.9347 19.8408 35.7721 19.478 35.4747C19.1151 35.1773 18.8665 34.7633 18.7744 34.3032L18.3228 32.0465C16.962 31.0744 15.9904 29.7136 15.4069 28.1585L14.1206 27.883C13.7142 27.7959 13.3501 27.572 13.0889 27.2488C12.8277 26.9256 12.6852 26.5225 12.6853 26.107V24.593C12.6853 24.1731 12.8307 23.7662 13.0969 23.4415C13.3632 23.1168 13.7336 22.8944 14.1454 22.8121L15.6012 22.5209C15.9904 21.3545 16.7677 20.3823 17.7399 19.4101L17.0304 16.1473C17.0061 16.0366 17.0134 15.9212 17.0515 15.8144C17.0896 15.7075 17.157 15.6136 17.2459 15.5431C17.3348 15.4727 17.4417 15.4287 17.5544 15.4161C17.6671 15.4035 17.7811 15.4228 17.8833 15.4718L21.2393 17.0771C22.7944 16.4936 24.5445 16.105 26.4876 16.105C32.9036 16.105 37.9576 20.3817 37.9576 25.4363L37.9582 25.4369Z" fill="#861EAD"/>
<path d="M31.1 24.704C34.9711 24.704 38.1092 21.5659 38.1092 17.6948C38.1092 13.8236 34.9711 10.6855 31.1 10.6855C27.2288 10.6855 24.0908 13.8236 24.0908 17.6948C24.0908 21.5659 27.2288 24.704 31.1 24.704Z" fill="#FFE500"/>
<path d="M29.6499 15.9699C30.7256 15.9699 31.3709 16.5952 31.3709 17.2078H32.2789C32.2789 15.887 30.9913 15.0619 29.6499 15.0619V15.9699ZM31.3709 17.2078C31.3709 17.4821 31.2074 17.7526 30.8442 17.9778C30.4798 18.2024 29.9677 18.341 29.4338 18.341V19.249C30.1081 19.249 30.7916 19.0771 31.3212 18.7502C31.8509 18.4234 32.2789 17.9003 32.2789 17.2078H31.3709ZM29.4338 18.341H29.4308H29.4295H29.4283H29.4241H29.4229H29.4217H29.4205H29.4193H29.418H29.4168H29.4156H29.4144H29.4132H29.412H29.4108H29.4096H29.4078H29.4065H29.4053H29.4035H29.4023H29.4005H29.3993H29.3975H29.3956H29.3938H29.392H29.3914H29.3896H29.3884H29.386H29.3854H29.3811H29.3799H29.3793H29.3757H29.3751H29.3733H29.369H29.3672H29.3666H29.3642V19.249H29.504V18.341H29.5028H29.4992H29.4955H29.4937H29.4925H29.4852H29.484H29.481H29.478H29.4762H29.4756H29.4743H29.4737H29.4725H29.4707H29.4689H29.4671H29.4653H29.4641H29.4622H29.461H29.4598H29.458H29.4568H29.4556H29.4544H29.4532H29.4519H29.4507H29.4495H29.4483H29.4471H29.4459H29.4447H29.4435H29.4392H29.438H29.435H29.4338V19.249H29.504V18.341H29.5028H29.501H29.4998H29.4992H29.498H29.4967H29.4937H29.4925H29.4895H29.4877H29.4852H29.484H29.4822H29.481H29.4798H29.4756H29.4737H29.4725H29.4707H29.4689H29.4641H29.4634H29.4622H29.461H29.4568H29.4556H29.4544H29.4507H29.4495H29.4459H29.4447H29.4423H29.441H29.438H29.4368H29.4338H29.4326H29.4295H29.4283H29.4253H29.4241H29.4229H29.4205H29.4193H29.4168H29.4156H29.4144H29.4108H29.4096H29.4078H29.4023H29.4005H29.3993H29.3975H29.3963H29.3956H29.3944H29.3938H29.392H29.3914H29.3878H29.386H29.3841H29.3829H29.3811H29.3793H29.3769H29.3757H29.3751H29.3733H29.372H29.369H29.3684H29.3666H29.3654H29.3642V19.249H29.4344L29.435 18.341H29.4338ZM29.1662 15.9699H33.2753V15.0619H29.1662V15.9699ZM29.1662 17.4203H33.2753V16.5123H29.1662V17.4203ZM29.0742 19.0717L31.6911 22.4737L32.4108 21.9204L29.794 18.5184L29.0742 19.0717Z" fill="white"/>
</g>
<defs>
<clipPath id="clip0_4856_38">
<rect width="25.4242" height="25.4242" fill="white" transform="translate(12.6852 10.6855)"/>
</clipPath>
</defs>
</svg>
