<svg width="39" height="46" viewBox="0 0 39 46" fill="none" xmlns="http://www.w3.org/2000/svg">
<path d="M20.1172 45.866C39.0996 39.2967 38.8024 23.8687 38.5954 12.5985C38.5954 11.4432 38.5529 10.3162 38.5529 9.23691V8.10989C38.5529 7.9378 38.519 7.76741 38.4531 7.60845C38.3872 7.44949 38.2906 7.30508 38.1688 7.18348C38.047 7.06188 37.9025 6.96548 37.7435 6.89979C37.5844 6.83409 37.414 6.8004 37.2419 6.80063H36.0989C29.7048 6.80063 25.0534 5.05437 21.0195 1.13545L20.2304 0.371127C19.9854 0.13313 19.6573 0 19.3157 0C18.9741 0 18.646 0.13313 18.401 0.371127L17.6154 1.13545C13.5762 5.05437 8.92658 6.80063 2.536 6.80063H1.40367C1.05611 6.80063 0.722727 6.93846 0.476632 7.18389C0.230536 7.42932 0.0918108 7.76233 0.0908739 8.10989V9.24222C0.0908739 10.3215 0.0908753 11.4432 0.048413 12.6038C-0.167437 23.8687 -0.464671 39.302 18.5195 45.8677C19.0362 46.0447 19.5988 46.0464 20.1172 45.866Z" fill="white"/>
<path d="M25.984 17.4584V15.0275C25.984 11.3138 22.7746 8.28125 18.8468 8.28125C14.919 8.28125 11.7114 11.3138 11.7114 15.0275V17.4584C9.77402 17.6177 8.28076 19.1321 8.28076 21.0146V29.539C8.28076 31.5258 9.96864 33.1217 12.0705 33.1217H25.6514C27.755 33.1217 29.4412 31.5276 29.4412 29.539V21.0146C29.4412 19.1321 27.9196 17.6177 25.984 17.4584ZM20.5064 28.3889C20.5193 28.4498 20.5182 28.5127 20.5032 28.5731C20.4882 28.6334 20.4597 28.6896 20.4198 28.7373C20.3799 28.785 20.3297 28.823 20.273 28.8485C20.2163 28.874 20.1545 28.8862 20.0924 28.8843H17.5747C17.5126 28.8862 17.4508 28.874 17.3941 28.8485C17.3373 28.823 17.2872 28.785 17.2473 28.7373C17.2074 28.6896 17.1789 28.6334 17.1639 28.5731C17.1489 28.5127 17.1478 28.4498 17.1607 28.3889L17.9905 25.3033C17.6431 25.1666 17.3443 24.9295 17.1322 24.6223C16.9202 24.315 16.8044 23.9516 16.7998 23.5783C16.7998 22.5327 17.7127 21.6675 18.8203 21.6675C19.9261 21.6675 20.839 22.5327 20.839 23.5783C20.839 24.3356 20.3418 24.9902 19.6501 25.3033L20.5064 28.3889ZM22.3606 17.4337H15.3348V15.054C15.3348 13.2228 16.9095 11.7331 18.8468 11.7331C20.7842 11.7331 22.3606 13.2228 22.3606 15.054V17.4337Z" fill="#333333"/>
</svg>
